{
  "asset": {
    "generator": "FBX2glTF v0.9.7",
    "version": "2.0"
  },
  "scene": 0,
  "buffers": [
    {
      "byteLength": 45240,
      "uri": "data:application/octet-stream;base64,"
    }
  ],
  "bufferViews": [
    {
      "buffer": 0,
      "byteLength": 4668,
      "byteOffset": 0,
      "target": 34963
    },
    {
      "buffer": 0,
      "byteLength": 18648,
      "byteOffset": 4668,
      "target": 34962
    },
    {
      "buffer": 0,
      "byteLength": 18648,
      "byteOffset": 23316,
      "target": 34962
    },
    {
      "buffer": 0,
      "byteLength": 252,
      "byteOffset": 41964,
      "target": 34963
    },
    {
      "buffer": 0,
      "byteLength": 1512,
      "byteOffset": 42216,
      "target": 34962
    },
    {
      "buffer": 0,
      "byteLength": 1512,
      "byteOffset": 43728,
      "target": 34962
    }
  ],
  "scenes": [
    {
      "name": "Root Scene",
      "nodes": [0]
    }
  ],
  "accessors": [
    {
      "componentType": 5123,
      "type": "SCALAR",
      "count": 2334,
      "bufferView": 0,
      "byteOffset": 0
    },
    {
      "componentType": 5126,
      "type": "VEC3",
      "count": 1554,
      "bufferView": 1,
      "byteOffset": 0,
      "min": [-0.00180029263719916, -0.00105286843609065, -6.0815811593784e-5],
      "max": [0.00300576095469296, 0.0152092380449176, 0.0224186349660158]
    },
    {
      "componentType": 5126,
      "type": "VEC3",
      "count": 1554,
      "bufferView": 2,
      "byteOffset": 0
    },
    {
      "componentType": 5123,
      "type": "SCALAR",
      "count": 126,
      "bufferView": 3,
      "byteOffset": 0
    },
    {
      "componentType": 5126,
      "type": "VEC3",
      "count": 126,
      "bufferView": 4,
      "byteOffset": 0,
      "min": [-0.00180029263719916, -0.00102975848130882, 0.0016162300016731],
      "max": [0.00291255326010287, 0.0147508727386594, 0.0183044131845236]
    },
    {
      "componentType": 5126,
      "type": "VEC3",
      "count": 126,
      "bufferView": 5,
      "byteOffset": 0
    }
  ],
  "samplers": [{}],
  "materials": [
    {
      "name": "White",
      "alphaMode": "OPAQUE",
      "extras": {
        "fromFBX": {
          "shadingModel": "Phong",
          "isTruePBR": false
        }
      },
      "pbrMetallicRoughness": {
        "baseColorFactor": [
          0.524353325366974, 0.54876297712326, 0.500589072704315, 1.0
        ],
        "metallicFactor": 0.0,
        "roughnessFactor": 1.0
      }
    },
    {
      "name": "Black",
      "alphaMode": "OPAQUE",
      "extras": {
        "fromFBX": {
          "shadingModel": "Phong",
          "isTruePBR": false
        }
      },
      "pbrMetallicRoughness": {
        "baseColorFactor": [
          0.043973233550787, 0.043973233550787, 0.043973233550787, 1.0
        ],
        "metallicFactor": 0.0,
        "roughnessFactor": 1.0
      }
    }
  ],
  "meshes": [
    {
      "name": "BirchTree_Dead_1",
      "primitives": [
        {
          "material": 0,
          "mode": 4,
          "attributes": {
            "NORMAL": 2,
            "POSITION": 1
          },
          "indices": 0
        },
        {
          "material": 1,
          "mode": 4,
          "attributes": {
            "NORMAL": 5,
            "POSITION": 4
          },
          "indices": 3
        }
      ]
    }
  ],
  "nodes": [
    {
      "name": "RootNode",
      "translation": [0.0, 0.0, 0.0],
      "rotation": [0.0, 0.0, 0.0, 1.0],
      "scale": [1.0, 1.0, 1.0],
      "children": [1]
    },
    {
      "name": "BirchTree_Dead_1",
      "translation": [0.0, 0.0, 0.0],
      "rotation": [-0.707106828689575, 0.0, 0.0, 0.707106709480286],
      "scale": [100.0, 100.0, 100.0],
      "mesh": 0
    }
  ]
}
