{
  "asset": {
    "generator": "FBX2glTF v0.9.7",
    "version": "2.0"
  },
  "scene": 0,
  "buffers": [
    {
      "byteLength": 160312,
      "uri": "data:application/octet-stream;base64,"
    }
  ],
  "bufferViews": [
    {
      "buffer": 0,
      "byteLength": 14160,
      "byteOffset": 0,
      "target": 34963
    },
    {
      "buffer": 0,
      "byteLength": 56640,
      "byteOffset": 14160,
      "target": 34962
    },
    {
      "buffer": 0,
      "byteLength": 56640,
      "byteOffset": 70800,
      "target": 34962
    },
    {
      "buffer": 0,
      "byteLength": 1230,
      "byteOffset": 127440,
      "target": 34963
    },
    {
      "buffer": 0,
      "byteLength": 4956,
      "byteOffset": 128672,
      "target": 34962
    },
    {
      "buffer": 0,
      "byteLength": 4956,
      "byteOffset": 133628,
      "target": 34962
    },
    {
      "buffer": 0,
      "byteLength": 2406,
      "byteOffset": 138584,
      "target": 34963
    },
    {
      "buffer": 0,
      "byteLength": 9660,
      "byteOffset": 140992,
      "target": 34962
    },
    {
      "buffer": 0,
      "byteLength": 9660,
      "byteOffset": 150652,
      "target": 34962
    }
  ],
  "scenes": [
    {
      "name": "Root Scene",
      "nodes": [0]
    }
  ],
  "accessors": [
    {
      "componentType": 5123,
      "type": "SCALAR",
      "count": 7080,
      "bufferView": 0,
      "byteOffset": 0
    },
    {
      "componentType": 5126,
      "type": "VEC3",
      "count": 4720,
      "bufferView": 1,
      "byteOffset": 0,
      "min": [-0.00549372658133507, -0.011546135880053, -0.000424604280851781],
      "max": [0.00495414389297366, 0.00965383742004633, 0.0217835996299982]
    },
    {
      "componentType": 5126,
      "type": "VEC3",
      "count": 4720,
      "bufferView": 2,
      "byteOffset": 0
    },
    {
      "componentType": 5123,
      "type": "SCALAR",
      "count": 615,
      "bufferView": 3,
      "byteOffset": 0
    },
    {
      "componentType": 5126,
      "type": "VEC3",
      "count": 413,
      "bufferView": 4,
      "byteOffset": 0,
      "min": [-0.00917878560721874, -0.0159879382699728, 0.013784047216177],
      "max": [0.00971235614269972, 0.0117434216663241, 0.0187928844243288]
    },
    {
      "componentType": 5126,
      "type": "VEC3",
      "count": 413,
      "bufferView": 5,
      "byteOffset": 0
    },
    {
      "componentType": 5123,
      "type": "SCALAR",
      "count": 1203,
      "bufferView": 6,
      "byteOffset": 0
    },
    {
      "componentType": 5126,
      "type": "VEC3",
      "count": 805,
      "bufferView": 7,
      "byteOffset": 0,
      "min": [-0.00917878560721874, -0.0159396287053823, 0.0165044981986284],
      "max": [0.00971235614269972, 0.0116941472515464, 0.0246653463691473]
    },
    {
      "componentType": 5126,
      "type": "VEC3",
      "count": 805,
      "bufferView": 8,
      "byteOffset": 0
    }
  ],
  "samplers": [{}],
  "materials": [
    {
      "name": "Brown",
      "alphaMode": "OPAQUE",
      "extras": {
        "fromFBX": {
          "shadingModel": "Phong",
          "isTruePBR": false
        }
      },
      "pbrMetallicRoughness": {
        "baseColorFactor": [
          0.122340939939022, 0.0562880821526051, 0.0476089976727962, 1.0
        ],
        "metallicFactor": 0.0,
        "roughnessFactor": 1.0
      }
    },
    {
      "name": "Green",
      "alphaMode": "OPAQUE",
      "extras": {
        "fromFBX": {
          "shadingModel": "Phong",
          "isTruePBR": false
        }
      },
      "pbrMetallicRoughness": {
        "baseColorFactor": [
          0.069953553378582, 0.12185650318861, 0.0478881113231182, 1.0
        ],
        "metallicFactor": 0.0,
        "roughnessFactor": 1.0
      }
    },
    {
      "name": "Snow",
      "alphaMode": "OPAQUE",
      "extras": {
        "fromFBX": {
          "shadingModel": "Phong",
          "isTruePBR": false
        }
      },
      "pbrMetallicRoughness": {
        "baseColorFactor": [
          0.40230917930603, 0.360628694295883, 0.421692192554474, 1.0
        ],
        "metallicFactor": 0.0,
        "roughnessFactor": 1.0
      }
    }
  ],
  "meshes": [
    {
      "name": "CommonTree_Snow_1",
      "primitives": [
        {
          "material": 0,
          "mode": 4,
          "attributes": {
            "NORMAL": 2,
            "POSITION": 1
          },
          "indices": 0
        },
        {
          "material": 1,
          "mode": 4,
          "attributes": {
            "NORMAL": 5,
            "POSITION": 4
          },
          "indices": 3
        },
        {
          "material": 2,
          "mode": 4,
          "attributes": {
            "NORMAL": 8,
            "POSITION": 7
          },
          "indices": 6
        }
      ]
    }
  ],
  "nodes": [
    {
      "name": "RootNode",
      "translation": [0.0, 0.0, 0.0],
      "rotation": [0.0, 0.0, 0.0, 1.0],
      "scale": [1.0, 1.0, 1.0],
      "children": [1]
    },
    {
      "name": "CommonTree_Snow_1",
      "translation": [0.0, 0.0, 0.0],
      "rotation": [-0.707106828689575, 0.0, 0.0, 0.707106709480286],
      "scale": [100.0, 100.0, 100.0],
      "mesh": 0
    }
  ]
}
