{
  "asset": {
    "generator": "FBX2glTF v0.9.7",
    "version": "2.0"
  },
  "scene": 0,
  "buffers": [
    {
      "byteLength": 97032,
      "uri": "data:application/octet-stream;base64,"
    }
  ],
  "bufferViews": [
    {
      "buffer": 0,
      "byteLength": 552,
      "byteOffset": 0,
      "target": 34963
    },
    {
      "buffer": 0,
      "byteLength": 2160,
      "byteOffset": 552,
      "target": 34962
    },
    {
      "buffer": 0,
      "byteLength": 2160,
      "byteOffset": 2712,
      "target": 34962
    },
    {
      "buffer": 0,
      "byteLength": 6840,
      "byteOffset": 4872,
      "target": 34963
    },
    {
      "buffer": 0,
      "byteLength": 27840,
      "byteOffset": 11712,
      "target": 34962
    },
    {
      "buffer": 0,
      "byteLength": 27840,
      "byteOffset": 39552,
      "target": 34962
    },
    {
      "buffer": 0,
      "byteLength": 3240,
      "byteOffset": 67392,
      "target": 34963
    },
    {
      "buffer": 0,
      "byteLength": 13200,
      "byteOffset": 70632,
      "target": 34962
    },
    {
      "buffer": 0,
      "byteLength": 13200,
      "byteOffset": 83832,
      "target": 34962
    }
  ],
  "scenes": [
    {
      "name": "Root Scene",
      "nodes": [0]
    }
  ],
  "accessors": [
    {
      "componentType": 5123,
      "type": "SCALAR",
      "count": 276,
      "bufferView": 0,
      "byteOffset": 0
    },
    {
      "componentType": 5126,
      "type": "VEC3",
      "count": 180,
      "bufferView": 1,
      "byteOffset": 0,
      "min": [
        -0.00197595939971507, -0.00646017724648118, -0.000237603249843232
      ],
      "max": [0.00153986236546189, 0.00155958125833422, 0.0356538891792297]
    },
    {
      "componentType": 5126,
      "type": "VEC3",
      "count": 180,
      "bufferView": 2,
      "byteOffset": 0
    },
    {
      "componentType": 5123,
      "type": "SCALAR",
      "count": 3420,
      "bufferView": 3,
      "byteOffset": 0
    },
    {
      "componentType": 5126,
      "type": "VEC3",
      "count": 2320,
      "bufferView": 4,
      "byteOffset": 0,
      "min": [-0.0126757333055139, -0.015341036953032, 0.0287323463708162],
      "max": [0.0160933714359999, 0.0107488678768277, 0.0444763712584972]
    },
    {
      "componentType": 5126,
      "type": "VEC3",
      "count": 2320,
      "bufferView": 5,
      "byteOffset": 0
    },
    {
      "componentType": 5123,
      "type": "SCALAR",
      "count": 1620,
      "bufferView": 6,
      "byteOffset": 0
    },
    {
      "componentType": 5126,
      "type": "VEC3",
      "count": 1100,
      "bufferView": 7,
      "byteOffset": 0,
      "min": [-0.0119402231648564, -0.0129744224250317, 0.0243797916918993],
      "max": [0.0113719142973423, 0.00491330493241549, 0.0393707081675529]
    },
    {
      "componentType": 5126,
      "type": "VEC3",
      "count": 1100,
      "bufferView": 8,
      "byteOffset": 0
    }
  ],
  "samplers": [{}],
  "materials": [
    {
      "name": "Brown",
      "alphaMode": "OPAQUE",
      "extras": {
        "fromFBX": {
          "shadingModel": "Phong",
          "isTruePBR": false
        }
      },
      "pbrMetallicRoughness": {
        "baseColorFactor": [
          0.122340939939022, 0.0562880821526051, 0.0476089976727962, 1.0
        ],
        "metallicFactor": 0.0,
        "roughnessFactor": 1.0
      }
    },
    {
      "name": "Green",
      "alphaMode": "OPAQUE",
      "extras": {
        "fromFBX": {
          "shadingModel": "Phong",
          "isTruePBR": false
        }
      },
      "pbrMetallicRoughness": {
        "baseColorFactor": [
          0.069953553378582, 0.12185650318861, 0.0478881113231182, 1.0
        ],
        "metallicFactor": 0.0,
        "roughnessFactor": 1.0
      }
    },
    {
      "name": "DarkGreen",
      "alphaMode": "OPAQUE",
      "extras": {
        "fromFBX": {
          "shadingModel": "Phong",
          "isTruePBR": false
        }
      },
      "pbrMetallicRoughness": {
        "baseColorFactor": [
          0.0425280593335629, 0.0726686120033264, 0.0295783914625645, 1.0
        ],
        "metallicFactor": 0.0,
        "roughnessFactor": 1.0
      }
    }
  ],
  "meshes": [
    {
      "name": "PalmTree_1",
      "primitives": [
        {
          "material": 0,
          "mode": 4,
          "attributes": {
            "NORMAL": 2,
            "POSITION": 1
          },
          "indices": 0
        },
        {
          "material": 1,
          "mode": 4,
          "attributes": {
            "NORMAL": 5,
            "POSITION": 4
          },
          "indices": 3
        },
        {
          "material": 2,
          "mode": 4,
          "attributes": {
            "NORMAL": 8,
            "POSITION": 7
          },
          "indices": 6
        }
      ]
    }
  ],
  "nodes": [
    {
      "name": "RootNode",
      "translation": [0.0, 0.0, 0.0],
      "rotation": [0.0, 0.0, 0.0, 1.0],
      "scale": [1.0, 1.0, 1.0],
      "children": [1]
    },
    {
      "name": "PalmTree_1",
      "translation": [0.0, 0.0, 0.0],
      "rotation": [-0.707106828689575, 0.0, 0.0, 0.707106709480286],
      "scale": [100.0, 100.0, 100.0],
      "mesh": 0
    }
  ]
}
