{
  "asset": {
    "generator": "FBX2glTF v0.9.7",
    "version": "2.0"
  },
  "scene": 0,
  "buffers": [
    {
      "byteLength": 6072,
      "uri": "data:application/octet-stream;base64,"
    }
  ],
  "bufferViews": [
    {
      "buffer": 0,
      "byteLength": 228,
      "byteOffset": 0,
      "target": 34963
    },
    {
      "buffer": 0,
      "byteLength": 912,
      "byteOffset": 228,
      "target": 34962
    },
    {
      "buffer": 0,
      "byteLength": 912,
      "byteOffset": 1140,
      "target": 34962
    },
    {
      "buffer": 0,
      "byteLength": 468,
      "byteOffset": 2052,
      "target": 34963
    },
    {
      "buffer": 0,
      "byteLength": 1776,
      "byteOffset": 2520,
      "target": 34962
    },
    {
      "buffer": 0,
      "byteLength": 1776,
      "byteOffset": 4296,
      "target": 34962
    }
  ],
  "scenes": [
    {
      "name": "Root Scene",
      "nodes": [0]
    }
  ],
  "accessors": [
    {
      "componentType": 5123,
      "type": "SCALAR",
      "count": 114,
      "bufferView": 0,
      "byteOffset": 0
    },
    {
      "componentType": 5126,
      "type": "VEC3",
      "count": 76,
      "bufferView": 1,
      "byteOffset": 0,
      "min": [-0.00411831494420767, -0.00470267189666629, 0.00143019296228886],
      "max": [0.00383566808886826, 0.00633875234052539, 0.00713686319068074]
    },
    {
      "componentType": 5126,
      "type": "VEC3",
      "count": 76,
      "bufferView": 2,
      "byteOffset": 0
    },
    {
      "componentType": 5123,
      "type": "SCALAR",
      "count": 234,
      "bufferView": 3,
      "byteOffset": 0
    },
    {
      "componentType": 5126,
      "type": "VEC3",
      "count": 148,
      "bufferView": 4,
      "byteOffset": 0,
      "min": [-0.00528463535010815, -0.00475660478696227, 5.86818532610778e-5],
      "max": [0.00383566808886826, 0.00666290521621704, 0.00700395973399282]
    },
    {
      "componentType": 5126,
      "type": "VEC3",
      "count": 148,
      "bufferView": 5,
      "byteOffset": 0
    }
  ],
  "samplers": [{}],
  "materials": [
    {
      "name": "Green",
      "alphaMode": "OPAQUE",
      "extras": {
        "fromFBX": {
          "shadingModel": "Phong",
          "isTruePBR": false
        }
      },
      "pbrMetallicRoughness": {
        "baseColorFactor": [
          0.069953553378582, 0.12185650318861, 0.0478881113231182, 1.0
        ],
        "metallicFactor": 0.0,
        "roughnessFactor": 1.0
      }
    },
    {
      "name": "Gray",
      "alphaMode": "OPAQUE",
      "extras": {
        "fromFBX": {
          "shadingModel": "Phong",
          "isTruePBR": false
        }
      },
      "pbrMetallicRoughness": {
        "baseColorFactor": [
          0.195368975400925, 0.206609711050987, 0.242556169629097, 1.0
        ],
        "metallicFactor": 0.0,
        "roughnessFactor": 1.0
      }
    }
  ],
  "meshes": [
    {
      "name": "Rock_Moss_6",
      "primitives": [
        {
          "material": 0,
          "mode": 4,
          "attributes": {
            "NORMAL": 2,
            "POSITION": 1
          },
          "indices": 0
        },
        {
          "material": 1,
          "mode": 4,
          "attributes": {
            "NORMAL": 5,
            "POSITION": 4
          },
          "indices": 3
        }
      ]
    }
  ],
  "nodes": [
    {
      "name": "RootNode",
      "translation": [0.0, 0.0, 0.0],
      "rotation": [0.0, 0.0, 0.0, 1.0],
      "scale": [1.0, 1.0, 1.0],
      "children": [1]
    },
    {
      "name": "Rock_Moss_6",
      "translation": [0.0, 0.0, 0.0],
      "rotation": [-0.707106828689575, 0.0, 0.0, 0.707106709480286],
      "scale": [100.0, 100.0, 100.0],
      "mesh": 0
    }
  ]
}
