{
  "asset": {
    "generator": "FBX2glTF v0.9.7",
    "version": "2.0"
  },
  "scene": 0,
  "buffers": [
    {
      "byteLength": 88392,
      "uri": "data:application/octet-stream;base64,"
    }
  ],
  "bufferViews": [
    {
      "buffer": 0,
      "byteLength": 4704,
      "byteOffset": 0,
      "target": 34963
    },
    {
      "buffer": 0,
      "byteLength": 18816,
      "byteOffset": 4704,
      "target": 34962
    },
    {
      "buffer": 0,
      "byteLength": 18816,
      "byteOffset": 23520,
      "target": 34962
    },
    {
      "buffer": 0,
      "byteLength": 3828,
      "byteOffset": 42336,
      "target": 34963
    },
    {
      "buffer": 0,
      "byteLength": 15312,
      "byteOffset": 46164,
      "target": 34962
    },
    {
      "buffer": 0,
      "byteLength": 15312,
      "byteOffset": 61476,
      "target": 34962
    },
    {
      "buffer": 0,
      "byteLength": 1284,
      "byteOffset": 76788,
      "target": 34963
    },
    {
      "buffer": 0,
      "byteLength": 5160,
      "byteOffset": 78072,
      "target": 34962
    },
    {
      "buffer": 0,
      "byteLength": 5160,
      "byteOffset": 83232,
      "target": 34962
    }
  ],
  "scenes": [
    {
      "name": "Root Scene",
      "nodes": [0]
    }
  ],
  "accessors": [
    {
      "componentType": 5123,
      "type": "SCALAR",
      "count": 2352,
      "bufferView": 0,
      "byteOffset": 0
    },
    {
      "componentType": 5126,
      "type": "VEC3",
      "count": 1568,
      "bufferView": 1,
      "byteOffset": 0,
      "min": [-0.00529589923098683, -0.00711209326982498, -0.00027098783175461],
      "max": [0.00485141715034842, 0.0187490899115801, 0.0269584283232689]
    },
    {
      "componentType": 5126,
      "type": "VEC3",
      "count": 1568,
      "bufferView": 2,
      "byteOffset": 0
    },
    {
      "componentType": 5123,
      "type": "SCALAR",
      "count": 1914,
      "bufferView": 3,
      "byteOffset": 0
    },
    {
      "componentType": 5126,
      "type": "VEC3",
      "count": 1276,
      "bufferView": 4,
      "byteOffset": 0,
      "min": [-0.00941997766494751, -0.00995852053165436, 0.00591736473143101],
      "max": [0.012443914078176, 0.0204888433218002, 0.0313665457069874]
    },
    {
      "componentType": 5126,
      "type": "VEC3",
      "count": 1276,
      "bufferView": 5,
      "byteOffset": 0
    },
    {
      "componentType": 5123,
      "type": "SCALAR",
      "count": 642,
      "bufferView": 6,
      "byteOffset": 0
    },
    {
      "componentType": 5126,
      "type": "VEC3",
      "count": 430,
      "bufferView": 7,
      "byteOffset": 0,
      "min": [-0.00591410882771015, -0.00956302229315042, 0.0261471476405859],
      "max": [0.0114169558510184, 0.0194580834358931, 0.0343612544238567]
    },
    {
      "componentType": 5126,
      "type": "VEC3",
      "count": 430,
      "bufferView": 8,
      "byteOffset": 0
    }
  ],
  "samplers": [{}],
  "materials": [
    {
      "name": "Brown",
      "alphaMode": "OPAQUE",
      "extras": {
        "fromFBX": {
          "shadingModel": "Phong",
          "isTruePBR": false
        }
      },
      "pbrMetallicRoughness": {
        "baseColorFactor": [
          0.122340939939022, 0.0562880821526051, 0.0476089976727962, 1.0
        ],
        "metallicFactor": 0.0,
        "roughnessFactor": 1.0
      }
    },
    {
      "name": "DarkGreen",
      "alphaMode": "OPAQUE",
      "extras": {
        "fromFBX": {
          "shadingModel": "Phong",
          "isTruePBR": false
        }
      },
      "pbrMetallicRoughness": {
        "baseColorFactor": [
          0.0425280593335629, 0.0726686120033264, 0.0295783914625645, 1.0
        ],
        "metallicFactor": 0.0,
        "roughnessFactor": 1.0
      }
    },
    {
      "name": "Snow",
      "alphaMode": "OPAQUE",
      "extras": {
        "fromFBX": {
          "shadingModel": "Phong",
          "isTruePBR": false
        }
      },
      "pbrMetallicRoughness": {
        "baseColorFactor": [
          0.40230917930603, 0.360628694295883, 0.421692192554474, 1.0
        ],
        "metallicFactor": 0.0,
        "roughnessFactor": 1.0
      }
    }
  ],
  "meshes": [
    {
      "name": "Willow_Snow_4",
      "primitives": [
        {
          "material": 0,
          "mode": 4,
          "attributes": {
            "NORMAL": 2,
            "POSITION": 1
          },
          "indices": 0
        },
        {
          "material": 1,
          "mode": 4,
          "attributes": {
            "NORMAL": 5,
            "POSITION": 4
          },
          "indices": 3
        },
        {
          "material": 2,
          "mode": 4,
          "attributes": {
            "NORMAL": 8,
            "POSITION": 7
          },
          "indices": 6
        }
      ]
    }
  ],
  "nodes": [
    {
      "name": "RootNode",
      "translation": [0.0, 0.0, 0.0],
      "rotation": [0.0, 0.0, 0.0, 1.0],
      "scale": [1.0, 1.0, 1.0],
      "children": [1]
    },
    {
      "name": "Willow_Snow_4",
      "translation": [0.0, 0.0, 0.0],
      "rotation": [-0.707106828689575, 0.0, 0.0, 0.707106709480286],
      "scale": [100.0, 100.0, 100.0],
      "mesh": 0
    }
  ]
}
