{
  "asset": {
    "generator": "FBX2glTF v0.9.7",
    "version": "2.0"
  },
  "scene": 0,
  "buffers": [
    {
      "byteLength": 111024,
      "uri": "data:application/octet-stream;base64,"
    }
  ],
  "bufferViews": [
    {
      "buffer": 0,
      "byteLength": 10344,
      "byteOffset": 0,
      "target": 34963
    },
    {
      "buffer": 0,
      "byteLength": 41376,
      "byteOffset": 10344,
      "target": 34962
    },
    {
      "buffer": 0,
      "byteLength": 41376,
      "byteOffset": 51720,
      "target": 34962
    },
    {
      "buffer": 0,
      "byteLength": 1992,
      "byteOffset": 93096,
      "target": 34963
    },
    {
      "buffer": 0,
      "byteLength": 7968,
      "byteOffset": 95088,
      "target": 34962
    },
    {
      "buffer": 0,
      "byteLength": 7968,
      "byteOffset": 103056,
      "target": 34962
    }
  ],
  "scenes": [
    {
      "name": "Root Scene",
      "nodes": [0]
    }
  ],
  "accessors": [
    {
      "componentType": 5123,
      "type": "SCALAR",
      "count": 5172,
      "bufferView": 0,
      "byteOffset": 0
    },
    {
      "componentType": 5126,
      "type": "VEC3",
      "count": 3448,
      "bufferView": 1,
      "byteOffset": 0,
      "min": [
        -0.00532653322443366, -0.00166454713325948, -0.000549591379240155
      ],
      "max": [0.0064124520868063, 0.0222960207611322, 0.0278134904801846]
    },
    {
      "componentType": 5126,
      "type": "VEC3",
      "count": 3448,
      "bufferView": 2,
      "byteOffset": 0
    },
    {
      "componentType": 5123,
      "type": "SCALAR",
      "count": 996,
      "bufferView": 3,
      "byteOffset": 0
    },
    {
      "componentType": 5126,
      "type": "VEC3",
      "count": 664,
      "bufferView": 4,
      "byteOffset": 0,
      "min": [-0.00323866633698344, 0.00225929636508226, 0.0041210725903511],
      "max": [0.00471132062375546, 0.0204181019216776, 0.0244104620069265]
    },
    {
      "componentType": 5126,
      "type": "VEC3",
      "count": 664,
      "bufferView": 5,
      "byteOffset": 0
    }
  ],
  "samplers": [{}],
  "materials": [
    {
      "name": "Brown",
      "alphaMode": "OPAQUE",
      "extras": {
        "fromFBX": {
          "shadingModel": "Phong",
          "isTruePBR": false
        }
      },
      "pbrMetallicRoughness": {
        "baseColorFactor": [
          0.122340939939022, 0.0562880821526051, 0.0476089976727962, 1.0
        ],
        "metallicFactor": 0.0,
        "roughnessFactor": 1.0
      }
    },
    {
      "name": "Snow",
      "alphaMode": "OPAQUE",
      "extras": {
        "fromFBX": {
          "shadingModel": "Phong",
          "isTruePBR": false
        }
      },
      "pbrMetallicRoughness": {
        "baseColorFactor": [
          0.40230917930603, 0.360628694295883, 0.421692192554474, 1.0
        ],
        "metallicFactor": 0.0,
        "roughnessFactor": 1.0
      }
    }
  ],
  "meshes": [
    {
      "name": "Willow_Dead_Snow_2",
      "primitives": [
        {
          "material": 0,
          "mode": 4,
          "attributes": {
            "NORMAL": 2,
            "POSITION": 1
          },
          "indices": 0
        },
        {
          "material": 1,
          "mode": 4,
          "attributes": {
            "NORMAL": 5,
            "POSITION": 4
          },
          "indices": 3
        }
      ]
    }
  ],
  "nodes": [
    {
      "name": "RootNode",
      "translation": [0.0, 0.0, 0.0],
      "rotation": [0.0, 0.0, 0.0, 1.0],
      "scale": [1.0, 1.0, 1.0],
      "children": [1]
    },
    {
      "name": "Willow_Dead_Snow_2",
      "translation": [0.0, 0.0, 0.0],
      "rotation": [-0.707106828689575, 0.0, 0.0, 0.707106709480286],
      "scale": [100.0, 100.0, 100.0],
      "mesh": 0
    }
  ]
}
