<svg width="128" height="128" viewBox="0 0 128 128" fill="none" xmlns="http://www.w3.org/2000/svg">
<path d="M81.504 9.46501C82.477 10.672 82.973 12.301 83.961 15.555L105.617 86.691C97.4831 82.4694 88.7526 79.5137 79.727 77.926L65.629 30.28C65.5177 29.8991 65.2858 29.5647 64.9682 29.3268C64.6505 29.089 64.2643 28.9607 63.8675 28.9611C63.4707 28.9616 63.0848 29.0908 62.7677 29.3293C62.4506 29.5679 62.2194 29.9029 62.109 30.284L48.18 77.902C39.115 79.4831 30.3456 82.4434 22.177 86.68L43.935 15.54C44.931 12.29 45.427 10.664 46.399 9.45701C47.2582 8.39456 48.3744 7.56915 49.642 7.05901C51.075 6.48401 52.778 6.48401 56.177 6.48401H71.72C75.122 6.48401 76.825 6.48401 78.263 7.06301C79.5314 7.57306 80.6467 8.40011 81.504 9.46501Z" fill="url(#paint0_linear_1_184)"/>
<path d="M84.094 90.074C80.524 93.129 73.398 95.211 65.191 95.211C55.121 95.211 46.676 92.074 44.437 87.855C43.637 90.273 43.457 93.039 43.457 94.809C43.457 94.809 42.93 103.484 48.965 109.519C48.965 108.774 49.1117 108.037 49.3967 107.349C49.6818 106.66 50.0996 106.035 50.6263 105.509C51.153 104.982 51.7783 104.564 52.4665 104.279C53.1546 103.994 53.8922 103.848 54.637 103.848C60.007 103.848 60.004 108.531 60 112.336V112.672C60 118.445 63.527 123.391 68.543 125.477C67.7699 123.889 67.3691 122.145 67.371 120.379C67.371 114.871 70.601 112.824 74.359 110.441C77.348 108.547 80.668 106.441 82.953 102.219C84.1862 99.944 84.8308 97.3967 84.828 94.809C84.8294 93.2022 84.5818 91.6049 84.094 90.074Z" fill="#FF5D01"/>
<path d="M84.094 90.074C80.524 93.129 73.398 95.211 65.191 95.211C55.121 95.211 46.676 92.074 44.437 87.855C43.637 90.273 43.457 93.039 43.457 94.809C43.457 94.809 42.93 103.484 48.965 109.519C48.965 108.774 49.1117 108.037 49.3967 107.349C49.6818 106.66 50.0996 106.035 50.6263 105.509C51.153 104.982 51.7783 104.564 52.4665 104.279C53.1546 103.994 53.8922 103.848 54.637 103.848C60.007 103.848 60.004 108.531 60 112.336V112.672C60 118.445 63.527 123.391 68.543 125.477C67.7699 123.889 67.3691 122.145 67.371 120.379C67.371 114.871 70.601 112.824 74.359 110.441C77.348 108.547 80.668 106.441 82.953 102.219C84.1862 99.944 84.8308 97.3967 84.828 94.809C84.8294 93.2022 84.5818 91.6049 84.094 90.074Z" fill="url(#paint1_linear_1_184)"/>
<defs>
<linearGradient id="paint0_linear_1_184" x1="88.2997" y1="2.71131" x2="63.8955" y2="86.6902" gradientUnits="userSpaceOnUse">
<stop stop-color="#000014"/>
<stop offset="1" stop-color="#150426"/>
</linearGradient>
<linearGradient id="paint1_linear_1_184" x1="100.168" y1="65.245" x2="79.0326" y2="109.491" gradientUnits="userSpaceOnUse">
<stop stop-color="#FF1639"/>
<stop offset="1" stop-color="#FF1639" stop-opacity="0"/>
</linearGradient>
</defs>
</svg>
