<svg width="128" height="128" viewBox="0 0 128 128" fill="none" xmlns="http://www.w3.org/2000/svg">
<path d="M91.0025 51.0408C84.4298 22.4008 70.7306 14.7765 67.2361 9.38686C65.7951 7.0126 64.5186 4.54467 63.4153 2C63.2307 4.54427 62.8915 6.14716 60.702 8.07656C56.3059 11.9481 37.6354 26.9762 36.0642 59.5174C34.6002 89.8578 58.6457 108.567 61.8225 110.5C64.2653 111.688 67.2404 110.526 68.6914 109.436C80.2827 101.578 96.1198 80.6306 91.0154 51.0408" fill="#10AA50"/>
<path d="M64.591 95C63.9821 102.537 63.546 106.917 62 111.223C62 111.223 63.0148 118.399 63.7273 126H66.2492C66.8508 120.647 67.7693 115.334 69 110.087C65.7353 108.504 64.7162 101.614 64.591 95Z" fill="#B8C4C2"/>
<path d="M69.0276 110C65.7807 108.485 64.8415 101.393 64.697 94.7853C65.5 83.8856 65.734 72.9508 65.3982 62.0262C65.2282 56.2939 65.479 8.93369 64 2C65.0117 4.34837 66.1773 6.62604 67.4892 8.81785C70.9486 14.2756 84.5143 21.9901 91.0167 50.9692C96.0826 80.8579 80.4897 101.998 69.0276 110Z" fill="#12924F"/>
</svg>
