<svg width="128" height="128" viewBox="0 0 128 128" fill="none" xmlns="http://www.w3.org/2000/svg">
<path d="M104.254 22.8189C93.8535 7.93378 73.3135 3.52179 58.4621 12.9841L32.3794 29.6078C28.8559 31.8245 25.8337 34.752 23.5059 38.2032C21.1781 41.6543 19.5961 45.5532 18.8608 49.6506C17.6166 56.5524 18.7102 63.6721 21.9684 69.8824C19.7358 73.2691 18.2131 77.0734 17.4922 81.0653C16.7492 85.2452 16.8483 89.5314 17.7837 93.6725C18.7191 97.8136 20.4719 101.726 22.9395 105.181C33.3417 120.067 53.8818 124.478 68.7309 115.016L94.8136 98.3921C98.3374 96.1756 101.36 93.2482 103.688 89.797C106.015 86.3458 107.597 82.4468 108.332 78.3493C109.576 71.4475 108.484 64.328 105.227 58.117C107.459 54.7303 108.981 50.9262 109.701 46.9346C110.445 42.7547 110.346 38.4684 109.41 34.3272C108.475 30.186 106.722 26.2734 104.254 22.8189Z" fill="#FF3E00"/>
<path d="M55.914 106.581C51.8094 107.649 47.4762 107.431 43.4995 105.957C39.5228 104.483 36.0943 101.824 33.6769 98.3389C32.1927 96.2615 31.1384 93.9085 30.5757 91.4182C30.0131 88.9278 29.9534 86.3501 30.4003 83.8364C30.5517 83.0111 30.7599 82.1972 31.0236 81.4007L31.5148 79.9029L32.8511 80.8844C35.9372 83.152 39.3878 84.876 43.0541 85.9822L44.0235 86.2763L43.9342 87.2438C43.8158 88.6202 44.1885 89.9941 44.9862 91.1219C45.7137 92.1716 46.7458 92.9727 47.9431 93.4171C49.1404 93.8615 50.4453 93.9277 51.6814 93.6069C52.2483 93.4554 52.7886 93.2179 53.2835 92.9028L79.3669 76.281C80.0052 75.8791 80.5527 75.3487 80.9746 74.7235C81.3965 74.0984 81.6836 73.3922 81.8175 72.65C81.9514 71.8923 81.933 71.1156 81.7634 70.3651C81.5939 69.6146 81.2766 68.9054 80.83 68.2788C80.1021 67.2289 79.0696 66.4275 77.8719 65.9829C76.6742 65.5383 75.3689 65.4718 74.1322 65.7924C73.5661 65.9439 73.0265 66.1812 72.5322 66.496L62.579 72.8409C60.9424 73.8815 59.1562 74.6659 57.2825 75.1668C53.178 76.234 48.8447 76.0158 44.8681 74.5418C40.8915 73.0677 37.463 70.4088 35.0457 66.9241C33.5615 64.8467 32.5071 62.4938 31.9444 60.0034C31.3818 57.5131 31.3222 54.9354 31.7691 52.4217C32.2112 49.9578 33.1626 47.6133 34.5625 45.5382C35.9625 43.4631 37.7801 41.7029 39.8991 40.3704L65.9802 23.7472C67.6176 22.7049 69.405 21.9195 71.2802 21.4185C75.3848 20.3513 79.718 20.5695 83.6946 22.0435C87.6712 23.5175 91.0996 26.1764 93.5169 29.6611C95.0011 31.7385 96.0555 34.0914 96.6182 36.5818C97.1808 39.0722 97.2405 41.6499 96.7935 44.1636C96.6416 44.9888 96.4333 45.8026 96.1702 46.5993L95.679 48.0971L94.3434 47.1171C91.2576 44.8482 87.8067 43.1234 84.1397 42.0171L83.1703 41.7229L83.2596 40.7554C83.3771 39.3791 83.0045 38.0056 82.2076 36.8774C81.4802 35.8277 80.4481 35.0266 79.2508 34.5822C78.0535 34.1378 76.7486 34.0715 75.5124 34.3924C74.9456 34.5439 74.4053 34.7814 73.9103 35.0965L47.8269 51.719C47.1888 52.1205 46.6415 52.6508 46.2198 53.2758C45.7982 53.9008 45.5116 54.6069 45.3782 55.349C45.2436 56.1066 45.2614 56.8835 45.4306 57.6341C45.5999 58.3848 45.9171 59.0941 46.3638 59.7207C47.0918 60.7706 48.1243 61.5719 49.322 62.0165C50.5197 62.4612 51.8249 62.5277 53.0616 62.2071C53.6284 62.0553 54.1686 61.8178 54.6636 61.503L64.6155 55.1605C66.2515 54.1185 68.0376 53.3334 69.9114 52.8327C74.016 51.7655 78.3492 51.9836 82.3259 53.4577C86.3025 54.9317 89.731 57.5907 92.1482 61.0754C93.6325 63.1528 94.6869 65.5057 95.2496 67.996C95.8122 70.4864 95.8718 73.0641 95.4248 75.5778C94.9825 78.0418 94.031 80.3864 92.6311 82.4619C91.2312 84.5373 89.4137 86.2978 87.2948 87.631L61.2136 104.253C59.5763 105.295 57.7893 106.08 55.914 106.581Z" fill="white"/>
</svg>
