<svg width="128" height="128" viewBox="0 0 128 128" fill="none" xmlns="http://www.w3.org/2000/svg">
<mask id="mask0_1_152" style="mask-type:luminance" maskUnits="userSpaceOnUse" x="3" y="27" width="123" height="74">
<path d="M3 27H126V100.8H3V27Z" fill="white"/>
</mask>
<g mask="url(#mask0_1_152)">
<path fill-rule="evenodd" clip-rule="evenodd" d="M64.5 27C48.1 27 37.85 35.2 33.75 51.6C39.9 43.4 47.075 40.325 55.275 42.375C59.9536 43.5435 63.2973 46.9397 66.9987 50.6957C73.028 56.8161 80.0071 63.9 95.25 63.9C111.65 63.9 121.9 55.7 126 39.3C119.85 47.5 112.675 50.575 104.475 48.525C99.7964 47.3565 96.4527 43.9603 92.7513 40.2043C86.722 34.0839 79.7429 27 64.5 27ZM33.75 63.9C17.35 63.9 7.1 72.1 3 88.5C9.15 80.3 16.325 77.225 24.525 79.275C29.2036 80.4458 32.5473 83.8397 36.2487 87.5957C42.278 93.7161 49.2571 100.8 64.5 100.8C80.9 100.8 91.15 92.6 95.25 76.2C89.1 84.4 81.925 87.475 73.725 85.425C69.0464 84.2565 65.7027 80.8603 62.0013 77.1043C55.972 70.9839 48.9929 63.9 33.75 63.9Z" fill="#38BDF8"/>
</g>
</svg>
