<svg width="128" height="128" viewBox="0 0 128 128" fill="none" xmlns="http://www.w3.org/2000/svg">
<path d="M119.629 25.2346L67.0174 118.548C65.9311 120.475 63.1403 120.486 62.0378 118.569L8.38256 25.2436C7.18139 23.1543 8.9826 20.6236 11.3696 21.0468L64.0379 30.3843C64.3739 30.4439 64.7179 30.4433 65.0538 30.3826L116.621 21.0602C119 20.6301 120.809 23.1412 119.629 25.2346Z" fill="url(#paint0_linear_1_133)"/>
<path d="M89.189 8.02772L50.5252 15.6873C49.8898 15.8132 49.4193 16.3577 49.3809 17.0111L47.0026 57.623C46.9466 58.5796 47.8155 59.322 48.7389 59.1067L59.5035 56.595C60.5106 56.3602 61.4207 57.257 61.2137 58.281L58.0156 74.1146C57.8003 75.1802 58.7899 76.0914 59.8192 75.7753L66.4679 73.733C67.4987 73.4167 68.4891 74.3305 68.271 75.397L63.1886 100.268C62.8705 101.824 64.9173 102.672 65.7708 101.338L66.341 100.447L97.8464 36.8789C98.374 35.8146 97.4642 34.6009 96.308 34.8265L85.2277 36.9886C84.1864 37.1916 83.3005 36.2112 83.5944 35.1812L90.8263 9.83419C91.1205 8.80248 90.2314 7.82124 89.189 8.02772Z" fill="url(#paint1_linear_1_133)"/>
<defs>
<linearGradient id="paint0_linear_1_133" x1="7.07253" y1="17.7119" x2="71.8599" y2="106.42" gradientUnits="userSpaceOnUse">
<stop stop-color="#41D1FF"/>
<stop offset="1" stop-color="#BD34FE"/>
</linearGradient>
<linearGradient id="paint1_linear_1_133" x1="61.2728" y1="10.1073" x2="73.2909" y2="91.6505" gradientUnits="userSpaceOnUse">
<stop stop-color="#FFEA83"/>
<stop offset="0.0833333" stop-color="#FFDD35"/>
<stop offset="1" stop-color="#FFA800"/>
</linearGradient>
</defs>
</svg>
