{
  "asset": {
    "generator": "FBX2glTF v0.9.7",
    "version": "2.0"
  },
  "scene": 0,
  "buffers": [
    {
      "byteLength": 70104,
      "uri": "data:application/octet-stream;base64,"
    }
  ],
  "bufferViews": [
    {
      "buffer": 0,
      "byteLength": 6204,
      "byteOffset": 0,
      "target": 34963
    },
    {
      "buffer": 0,
      "byteLength": 24816,
      "byteOffset": 6204,
      "target": 34962
    },
    {
      "buffer": 0,
      "byteLength": 24816,
      "byteOffset": 31020,
      "target": 34962
    },
    {
      "buffer": 0,
      "byteLength": 408,
      "byteOffset": 55836,
      "target": 34963
    },
    {
      "buffer": 0,
      "byteLength": 2448,
      "byteOffset": 56244,
      "target": 34962
    },
    {
      "buffer": 0,
      "byteLength": 2448,
      "byteOffset": 58692,
      "target": 34962
    },
    {
      "buffer": 0,
      "byteLength": 996,
      "byteOffset": 61140,
      "target": 34963
    },
    {
      "buffer": 0,
      "byteLength": 3984,
      "byteOffset": 62136,
      "target": 34962
    },
    {
      "buffer": 0,
      "byteLength": 3984,
      "byteOffset": 66120,
      "target": 34962
    }
  ],
  "scenes": [
    {
      "name": "Root Scene",
      "nodes": [0]
    }
  ],
  "accessors": [
    {
      "componentType": 5123,
      "type": "SCALAR",
      "count": 3102,
      "bufferView": 0,
      "byteOffset": 0
    },
    {
      "componentType": 5126,
      "type": "VEC3",
      "count": 2068,
      "bufferView": 1,
      "byteOffset": 0,
      "min": [
        -0.00282682362012565, -0.00312270317226648, -0.000720276148058474
      ],
      "max": [0.00288948300294578, 0.0074053667485714, 0.0429587215185165]
    },
    {
      "componentType": 5126,
      "type": "VEC3",
      "count": 2068,
      "bufferView": 2,
      "byteOffset": 0
    },
    {
      "componentType": 5123,
      "type": "SCALAR",
      "count": 204,
      "bufferView": 3,
      "byteOffset": 0
    },
    {
      "componentType": 5126,
      "type": "VEC3",
      "count": 204,
      "bufferView": 4,
      "byteOffset": 0,
      "min": [-0.00214808899909258, -0.00279363244771957, 0.000123683901620097],
      "max": [0.00216147606261075, 0.00712823122739792, 0.0402399972081184]
    },
    {
      "componentType": 5126,
      "type": "VEC3",
      "count": 204,
      "bufferView": 5,
      "byteOffset": 0
    },
    {
      "componentType": 5123,
      "type": "SCALAR",
      "count": 498,
      "bufferView": 6,
      "byteOffset": 0
    },
    {
      "componentType": 5126,
      "type": "VEC3",
      "count": 332,
      "bufferView": 7,
      "byteOffset": 0,
      "min": [-0.00157171452883631, -0.00259442790411413, 0.0143268713727593],
      "max": [0.0019283244619146, 0.0066979699768126, 0.0385493598878384]
    },
    {
      "componentType": 5126,
      "type": "VEC3",
      "count": 332,
      "bufferView": 8,
      "byteOffset": 0
    }
  ],
  "samplers": [{}],
  "materials": [
    {
      "name": "White",
      "alphaMode": "OPAQUE",
      "extras": {
        "fromFBX": {
          "shadingModel": "Phong",
          "isTruePBR": false
        }
      },
      "pbrMetallicRoughness": {
        "baseColorFactor": [
          0.524353325366974, 0.54876297712326, 0.500589072704315, 1.0
        ],
        "metallicFactor": 0.0,
        "roughnessFactor": 1.0
      }
    },
    {
      "name": "Black",
      "alphaMode": "OPAQUE",
      "extras": {
        "fromFBX": {
          "shadingModel": "Phong",
          "isTruePBR": false
        }
      },
      "pbrMetallicRoughness": {
        "baseColorFactor": [
          0.043973233550787, 0.043973233550787, 0.043973233550787, 1.0
        ],
        "metallicFactor": 0.0,
        "roughnessFactor": 1.0
      }
    },
    {
      "name": "Snow",
      "alphaMode": "OPAQUE",
      "extras": {
        "fromFBX": {
          "shadingModel": "Phong",
          "isTruePBR": false
        }
      },
      "pbrMetallicRoughness": {
        "baseColorFactor": [
          0.40230917930603, 0.360628694295883, 0.421692192554474, 1.0
        ],
        "metallicFactor": 0.0,
        "roughnessFactor": 1.0
      }
    }
  ],
  "meshes": [
    {
      "name": "BirchTree_Dead_Snow_5",
      "primitives": [
        {
          "material": 0,
          "mode": 4,
          "attributes": {
            "NORMAL": 2,
            "POSITION": 1
          },
          "indices": 0
        },
        {
          "material": 1,
          "mode": 4,
          "attributes": {
            "NORMAL": 5,
            "POSITION": 4
          },
          "indices": 3
        },
        {
          "material": 2,
          "mode": 4,
          "attributes": {
            "NORMAL": 8,
            "POSITION": 7
          },
          "indices": 6
        }
      ]
    }
  ],
  "nodes": [
    {
      "name": "RootNode",
      "translation": [0.0, 0.0, 0.0],
      "rotation": [0.0, 0.0, 0.0, 1.0],
      "scale": [1.0, 1.0, 1.0],
      "children": [1]
    },
    {
      "name": "BirchTree_Dead_Snow_5",
      "translation": [0.0, 0.0, 0.0],
      "rotation": [-0.707106828689575, 0.0, 0.0, 0.707106709480286],
      "scale": [100.0, 100.0, 100.0],
      "mesh": 0
    }
  ]
}
