{
  "asset": {
    "generator": "FBX2glTF v0.9.7",
    "version": "2.0"
  },
  "scene": 0,
  "buffers": [
    {
      "byteLength": 27564,
      "uri": "data:application/octet-stream;base64,"
    }
  ],
  "bufferViews": [
    {
      "buffer": 0,
      "byteLength": 1056,
      "byteOffset": 0,
      "target": 34963
    },
    {
      "buffer": 0,
      "byteLength": 4224,
      "byteOffset": 1056,
      "target": 34962
    },
    {
      "buffer": 0,
      "byteLength": 4224,
      "byteOffset": 5280,
      "target": 34962
    },
    {
      "buffer": 0,
      "byteLength": 1548,
      "byteOffset": 9504,
      "target": 34963
    },
    {
      "buffer": 0,
      "byteLength": 8256,
      "byteOffset": 11052,
      "target": 34962
    },
    {
      "buffer": 0,
      "byteLength": 8256,
      "byteOffset": 19308,
      "target": 34962
    }
  ],
  "scenes": [
    {
      "name": "Root Scene",
      "nodes": [0]
    }
  ],
  "accessors": [
    {
      "componentType": 5123,
      "type": "SCALAR",
      "count": 528,
      "bufferView": 0,
      "byteOffset": 0
    },
    {
      "componentType": 5126,
      "type": "VEC3",
      "count": 352,
      "bufferView": 1,
      "byteOffset": 0,
      "min": [
        -0.00199087779037654, -0.00199087779037654, -0.000107270148873795
      ],
      "max": [0.00199087779037654, 0.00199087779037654, 0.00996902771294117]
    },
    {
      "componentType": 5126,
      "type": "VEC3",
      "count": 352,
      "bufferView": 2,
      "byteOffset": 0
    },
    {
      "componentType": 5123,
      "type": "SCALAR",
      "count": 774,
      "bufferView": 3,
      "byteOffset": 0
    },
    {
      "componentType": 5126,
      "type": "VEC3",
      "count": 688,
      "bufferView": 4,
      "byteOffset": 0,
      "min": [-0.00267188809812069, -0.00281362258829176, 0.00116779201198369],
      "max": [0.00282496144063771, 0.00281551503576338, 0.00961422082036734]
    },
    {
      "componentType": 5126,
      "type": "VEC3",
      "count": 688,
      "bufferView": 5,
      "byteOffset": 0
    }
  ],
  "samplers": [{}],
  "materials": [
    {
      "name": "Green",
      "alphaMode": "OPAQUE",
      "extras": {
        "fromFBX": {
          "shadingModel": "Phong",
          "isTruePBR": false
        }
      },
      "pbrMetallicRoughness": {
        "baseColorFactor": [
          0.069953553378582, 0.12185650318861, 0.0478881113231182, 1.0
        ],
        "metallicFactor": 0.0,
        "roughnessFactor": 1.0
      }
    },
    {
      "name": "LightOrange",
      "alphaMode": "OPAQUE",
      "extras": {
        "fromFBX": {
          "shadingModel": "Phong",
          "isTruePBR": false
        }
      },
      "pbrMetallicRoughness": {
        "baseColorFactor": [
          0.439078003168106, 0.263352483510971, 0.0841379687190056, 1.0
        ],
        "metallicFactor": 0.0,
        "roughnessFactor": 1.0
      }
    }
  ],
  "meshes": [
    {
      "name": "Cactus_1",
      "primitives": [
        {
          "material": 0,
          "mode": 4,
          "attributes": {
            "NORMAL": 2,
            "POSITION": 1
          },
          "indices": 0
        },
        {
          "material": 1,
          "mode": 4,
          "attributes": {
            "NORMAL": 5,
            "POSITION": 4
          },
          "indices": 3
        }
      ]
    }
  ],
  "nodes": [
    {
      "name": "RootNode",
      "translation": [0.0, 0.0, 0.0],
      "rotation": [0.0, 0.0, 0.0, 1.0],
      "scale": [1.0, 1.0, 1.0],
      "children": [1]
    },
    {
      "name": "Cactus_1",
      "translation": [0.0, 0.0, 0.0],
      "rotation": [-0.707106828689575, 0.0, 0.0, 0.707106709480286],
      "scale": [100.0, 100.0, 100.0],
      "mesh": 0
    }
  ]
}
