{
  "asset": {
    "generator": "FBX2glTF v0.9.7",
    "version": "2.0"
  },
  "scene": 0,
  "buffers": [
    {
      "byteLength": 90480,
      "uri": "data:application/octet-stream;base64,"
    }
  ],
  "bufferViews": [
    {
      "buffer": 0,
      "byteLength": 5664,
      "byteOffset": 0,
      "target": 34963
    },
    {
      "buffer": 0,
      "byteLength": 22656,
      "byteOffset": 5664,
      "target": 34962
    },
    {
      "buffer": 0,
      "byteLength": 22656,
      "byteOffset": 28320,
      "target": 34962
    },
    {
      "buffer": 0,
      "byteLength": 972,
      "byteOffset": 50976,
      "target": 34963
    },
    {
      "buffer": 0,
      "byteLength": 3912,
      "byteOffset": 51948,
      "target": 34962
    },
    {
      "buffer": 0,
      "byteLength": 3912,
      "byteOffset": 55860,
      "target": 34962
    },
    {
      "buffer": 0,
      "byteLength": 2436,
      "byteOffset": 59772,
      "target": 34963
    },
    {
      "buffer": 0,
      "byteLength": 9792,
      "byteOffset": 62208,
      "target": 34962
    },
    {
      "buffer": 0,
      "byteLength": 9792,
      "byteOffset": 72000,
      "target": 34962
    },
    {
      "buffer": 0,
      "byteLength": 960,
      "byteOffset": 81792,
      "target": 34963
    },
    {
      "buffer": 0,
      "byteLength": 3864,
      "byteOffset": 82752,
      "target": 34962
    },
    {
      "buffer": 0,
      "byteLength": 3864,
      "byteOffset": 86616,
      "target": 34962
    }
  ],
  "scenes": [
    {
      "name": "Root Scene",
      "nodes": [0]
    }
  ],
  "accessors": [
    {
      "componentType": 5123,
      "type": "SCALAR",
      "count": 2832,
      "bufferView": 0,
      "byteOffset": 0
    },
    {
      "componentType": 5126,
      "type": "VEC3",
      "count": 1888,
      "bufferView": 1,
      "byteOffset": 0,
      "min": [
        -0.00526343379169703, -0.00490432512015104, -0.000720276206266135
      ],
      "max": [0.00108899036422372, 0.00322021706961095, 0.0292963720858097]
    },
    {
      "componentType": 5126,
      "type": "VEC3",
      "count": 1888,
      "bufferView": 2,
      "byteOffset": 0
    },
    {
      "componentType": 5123,
      "type": "SCALAR",
      "count": 486,
      "bufferView": 3,
      "byteOffset": 0
    },
    {
      "componentType": 5126,
      "type": "VEC3",
      "count": 326,
      "bufferView": 4,
      "byteOffset": 0,
      "min": [-0.00625555403530598, -0.00760929100215435, 0.0221966281533241],
      "max": [0.00570647604763508, 0.00791868474334478, 0.0302168056368828]
    },
    {
      "componentType": 5126,
      "type": "VEC3",
      "count": 326,
      "bufferView": 5,
      "byteOffset": 0
    },
    {
      "componentType": 5123,
      "type": "SCALAR",
      "count": 1218,
      "bufferView": 6,
      "byteOffset": 0
    },
    {
      "componentType": 5126,
      "type": "VEC3",
      "count": 816,
      "bufferView": 7,
      "byteOffset": 0,
      "min": [-0.00673679215833545, -0.00674873823300004, 0.0179203525185585],
      "max": [0.00443761004135013, 0.00647099409252405, 0.0340233407914639]
    },
    {
      "componentType": 5126,
      "type": "VEC3",
      "count": 816,
      "bufferView": 8,
      "byteOffset": 0
    },
    {
      "componentType": 5123,
      "type": "SCALAR",
      "count": 480,
      "bufferView": 9,
      "byteOffset": 0
    },
    {
      "componentType": 5126,
      "type": "VEC3",
      "count": 322,
      "bufferView": 10,
      "byteOffset": 0,
      "min": [-0.00704387109726667, -0.0076975068077445, 0.0141590172424912],
      "max": [0.00392554886639118, 0.00647666305303574, 0.0217743031680584]
    },
    {
      "componentType": 5126,
      "type": "VEC3",
      "count": 322,
      "bufferView": 11,
      "byteOffset": 0
    }
  ],
  "samplers": [{}],
  "materials": [
    {
      "name": "Brown",
      "alphaMode": "OPAQUE",
      "extras": {
        "fromFBX": {
          "shadingModel": "Phong",
          "isTruePBR": false
        }
      },
      "pbrMetallicRoughness": {
        "baseColorFactor": [
          0.122340939939022, 0.0562880821526051, 0.0476089976727962, 1.0
        ],
        "metallicFactor": 0.0,
        "roughnessFactor": 1.0
      }
    },
    {
      "name": "DarkGreen",
      "alphaMode": "OPAQUE",
      "extras": {
        "fromFBX": {
          "shadingModel": "Phong",
          "isTruePBR": false
        }
      },
      "pbrMetallicRoughness": {
        "baseColorFactor": [
          0.0425280593335629, 0.0726686120033264, 0.0295783914625645, 1.0
        ],
        "metallicFactor": 0.0,
        "roughnessFactor": 1.0
      }
    },
    {
      "name": "Snow",
      "alphaMode": "OPAQUE",
      "extras": {
        "fromFBX": {
          "shadingModel": "Phong",
          "isTruePBR": false
        }
      },
      "pbrMetallicRoughness": {
        "baseColorFactor": [
          0.40230917930603, 0.360628694295883, 0.421692192554474, 1.0
        ],
        "metallicFactor": 0.0,
        "roughnessFactor": 1.0
      }
    },
    {
      "name": "Green",
      "alphaMode": "OPAQUE",
      "extras": {
        "fromFBX": {
          "shadingModel": "Phong",
          "isTruePBR": false
        }
      },
      "pbrMetallicRoughness": {
        "baseColorFactor": [
          0.069953553378582, 0.12185650318861, 0.0478881113231182, 1.0
        ],
        "metallicFactor": 0.0,
        "roughnessFactor": 1.0
      }
    }
  ],
  "meshes": [
    {
      "name": "CommonTree_Snow_3",
      "primitives": [
        {
          "material": 0,
          "mode": 4,
          "attributes": {
            "NORMAL": 2,
            "POSITION": 1
          },
          "indices": 0
        },
        {
          "material": 1,
          "mode": 4,
          "attributes": {
            "NORMAL": 5,
            "POSITION": 4
          },
          "indices": 3
        },
        {
          "material": 2,
          "mode": 4,
          "attributes": {
            "NORMAL": 8,
            "POSITION": 7
          },
          "indices": 6
        },
        {
          "material": 3,
          "mode": 4,
          "attributes": {
            "NORMAL": 11,
            "POSITION": 10
          },
          "indices": 9
        }
      ]
    }
  ],
  "nodes": [
    {
      "name": "RootNode",
      "translation": [0.0, 0.0, 0.0],
      "rotation": [0.0, 0.0, 0.0, 1.0],
      "scale": [1.0, 1.0, 1.0],
      "children": [1]
    },
    {
      "name": "CommonTree_Snow_3",
      "translation": [0.0, 0.0, 0.0],
      "rotation": [-0.707106828689575, 0.0, 0.0, 0.707106709480286],
      "scale": [100.0, 100.0, 100.0],
      "mesh": 0
    }
  ]
}
