{
  "asset": {
    "generator": "FBX2glTF v0.9.7",
    "version": "2.0"
  },
  "scene": 0,
  "buffers": [
    {
      "byteLength": 103316,
      "uri": "data:application/octet-stream;base64,"
    }
  ],
  "bufferViews": [
    {
      "buffer": 0,
      "byteLength": 336,
      "byteOffset": 0,
      "target": 34963
    },
    {
      "buffer": 0,
      "byteLength": 1296,
      "byteOffset": 336,
      "target": 34962
    },
    {
      "buffer": 0,
      "byteLength": 1296,
      "byteOffset": 1632,
      "target": 34962
    },
    {
      "buffer": 0,
      "byteLength": 11130,
      "byteOffset": 2928,
      "target": 34963
    },
    {
      "buffer": 0,
      "byteLength": 44628,
      "byteOffset": 14060,
      "target": 34962
    },
    {
      "buffer": 0,
      "byteLength": 44628,
      "byteOffset": 58688,
      "target": 34962
    }
  ],
  "scenes": [
    {
      "name": "Root Scene",
      "nodes": [0]
    }
  ],
  "accessors": [
    {
      "componentType": 5123,
      "type": "SCALAR",
      "count": 168,
      "bufferView": 0,
      "byteOffset": 0
    },
    {
      "componentType": 5126,
      "type": "VEC3",
      "count": 108,
      "bufferView": 1,
      "byteOffset": 0,
      "min": [-0.00211013946682215, -0.002083670347929, -0.000129966225358658],
      "max": [0.00206365692429245, 0.00249334215186536, 0.0247773472219706]
    },
    {
      "componentType": 5126,
      "type": "VEC3",
      "count": 108,
      "bufferView": 2,
      "byteOffset": 0
    },
    {
      "componentType": 5123,
      "type": "SCALAR",
      "count": 5565,
      "bufferView": 3,
      "byteOffset": 0
    },
    {
      "componentType": 5126,
      "type": "VEC3",
      "count": 3719,
      "bufferView": 4,
      "byteOffset": 0,
      "min": [-0.00935130193829536, -0.00984537787735462, 0.00332146347500384],
      "max": [0.0102103110402822, 0.00830824952572584, 0.0268703028559685]
    },
    {
      "componentType": 5126,
      "type": "VEC3",
      "count": 3719,
      "bufferView": 5,
      "byteOffset": 0
    }
  ],
  "samplers": [{}],
  "materials": [
    {
      "name": "Brown",
      "alphaMode": "OPAQUE",
      "extras": {
        "fromFBX": {
          "shadingModel": "Phong",
          "isTruePBR": false
        }
      },
      "pbrMetallicRoughness": {
        "baseColorFactor": [
          0.122340939939022, 0.0562880821526051, 0.0476089976727962, 1.0
        ],
        "metallicFactor": 0.0,
        "roughnessFactor": 1.0
      }
    },
    {
      "name": "Green",
      "alphaMode": "OPAQUE",
      "extras": {
        "fromFBX": {
          "shadingModel": "Phong",
          "isTruePBR": false
        }
      },
      "pbrMetallicRoughness": {
        "baseColorFactor": [
          0.069953553378582, 0.12185650318861, 0.0478881113231182, 1.0
        ],
        "metallicFactor": 0.0,
        "roughnessFactor": 1.0
      }
    }
  ],
  "meshes": [
    {
      "name": "PineTree_1",
      "primitives": [
        {
          "material": 0,
          "mode": 4,
          "attributes": {
            "NORMAL": 2,
            "POSITION": 1
          },
          "indices": 0
        },
        {
          "material": 1,
          "mode": 4,
          "attributes": {
            "NORMAL": 5,
            "POSITION": 4
          },
          "indices": 3
        }
      ]
    }
  ],
  "nodes": [
    {
      "name": "RootNode",
      "translation": [0.0, 0.0, 0.0],
      "rotation": [0.0, 0.0, 0.0, 1.0],
      "scale": [1.0, 1.0, 1.0],
      "children": [1]
    },
    {
      "name": "PineTree_1",
      "translation": [0.0, 0.0, 0.0],
      "rotation": [-0.707106828689575, 0.0, 0.0, 0.707106709480286],
      "scale": [100.0, 100.0, 100.0],
      "mesh": 0
    }
  ]
}
